<svg width="52" height="50" viewBox="0 0 52 50" fill="none" xmlns="http://www.w3.org/2000/svg">
<path id="Vector" d="M26 0C22.5856 0 19.2047 0.662699 16.0502 1.95026C12.8958 3.23782 10.0295 5.12502 7.61522 7.50412C2.73928 12.3089 0 18.8256 0 25.6207C0 36.945 7.462 46.5528 17.784 49.9603C19.084 50.1653 19.5 49.371 19.5 48.6793V44.3494C12.298 45.8866 10.764 40.9162 10.764 40.9162C9.568 37.9442 7.878 37.15 7.878 37.15C5.512 35.5615 8.06 35.6127 8.06 35.6127C10.66 35.7921 12.038 38.2517 12.038 38.2517C14.3 42.146 18.122 40.9931 19.604 40.3782C19.838 38.7128 20.514 37.5855 21.242 36.945C15.47 36.3045 9.412 34.1011 9.412 24.3396C9.412 21.4957 10.4 19.2155 12.09 17.3964C11.83 16.7559 10.92 14.0914 12.35 10.6326C12.35 10.6326 14.534 9.94082 19.5 13.2459C21.554 12.6822 23.79 12.4004 26 12.4004C28.21 12.4004 30.446 12.6822 32.5 13.2459C37.466 9.94082 39.65 10.6326 39.65 10.6326C41.08 14.0914 40.17 16.7559 39.91 17.3964C41.6 19.2155 42.588 21.4957 42.588 24.3396C42.588 34.1267 36.504 36.2789 30.706 36.9194C31.642 37.7136 32.5 39.2765 32.5 41.6592V48.6793C32.5 49.371 32.916 50.1909 34.242 49.9603C44.564 46.5271 52 36.945 52 25.6207C52 22.2561 51.3275 18.9245 50.0209 15.8161C48.7142 12.7076 46.7991 9.88322 44.3848 7.50412C41.9705 5.12502 39.1042 3.23782 35.9498 1.95026C32.7953 0.662699 29.4144 0 26 0Z" fill="white"/>
</svg>
